<svg width="17" height="20" viewBox="0 0 17 20" fill="none" xmlns="http://www.w3.org/2000/svg">
<path d="M5.37109 5.5V2.375C5.37109 1.87772 5.70077 1.40081 6.28761 1.04917C6.87444 0.697544 7.67036 0.5 8.50027 0.5C9.33019 0.5 10.1261 0.697544 10.7129 1.04917C11.2998 1.40081 11.6295 1.87772 11.6295 2.375V5.5" stroke="#1A1B22" stroke-linecap="round" stroke-linejoin="round"/>
<path d="M2.58637 5.5H14.4136C14.7144 5.49996 15.0117 5.56497 15.285 5.69057C15.5583 5.81616 15.8012 5.99937 15.9971 6.22764C16.1929 6.45591 16.3371 6.72384 16.4197 7.01305C16.5024 7.30226 16.5215 7.60592 16.4758 7.90321L15.1667 16.4062C15.0531 17.1452 14.6786 17.819 14.1111 18.3058C13.5436 18.7925 12.8206 19.06 12.073 19.0598H4.92595C4.1785 19.0597 3.45574 18.7922 2.88847 18.3054C2.3212 17.8187 1.94689 17.145 1.83328 16.4062L0.52424 7.90321C0.478521 7.60592 0.49763 7.30226 0.580258 7.01305C0.662885 6.72384 0.807077 6.45591 1.00295 6.22764C1.19882 5.99937 1.44173 5.81616 1.71504 5.69057C1.98835 5.56497 2.28559 5.49996 2.58637 5.5Z" stroke="#1A1B22" stroke-linecap="round" stroke-linejoin="round"/>
</svg>
